<mxfile host="app.diagrams.net" modified="2021-02-07T09:07:26.167Z" agent="5.0 (Windows NT 10.0; Win64; x64) AppleWebKit/537.36 (KHTML, like Gecko) Chrome/88.0.4324.146 Safari/537.36" etag="mj0Ml9ZfeCqDZ8fwTr5h" version="13.11.0" type="github">
  <diagram id="C5RBs43oDa-KdzZeNtuy" name="Page-1">
    <mxGraphModel dx="923" dy="383" grid="0" gridSize="10" guides="1" tooltips="1" connect="1" arrows="1" fold="1" page="1" pageScale="1" pageWidth="827" pageHeight="1169" math="0" shadow="0">
      <root>
        <mxCell id="WIyWlLk6GJQsqaUBKTNV-0" />
        <mxCell id="WIyWlLk6GJQsqaUBKTNV-1" parent="WIyWlLk6GJQsqaUBKTNV-0" />
        <mxCell id="zkfFHV4jXpPFQw0GAbJ--0" value="FXMLDocumentController" style="swimlane;fontStyle=2;align=center;verticalAlign=top;childLayout=stackLayout;horizontal=1;startSize=26;horizontalStack=0;resizeParent=1;resizeLast=0;collapsible=1;marginBottom=0;rounded=0;shadow=0;strokeWidth=1;" parent="WIyWlLk6GJQsqaUBKTNV-1" vertex="1">
          <mxGeometry x="44" y="104" width="340" height="184" as="geometry">
            <mxRectangle x="230" y="140" width="160" height="26" as="alternateBounds" />
          </mxGeometry>
        </mxCell>
        <mxCell id="zkfFHV4jXpPFQw0GAbJ--1" value="-label1 : Label" style="text;align=left;verticalAlign=top;spacingLeft=4;spacingRight=4;overflow=hidden;rotatable=0;points=[[0,0.5],[1,0.5]];portConstraint=eastwest;" parent="zkfFHV4jXpPFQw0GAbJ--0" vertex="1">
          <mxGeometry y="26" width="340" height="26" as="geometry" />
        </mxCell>
        <mxCell id="zkfFHV4jXpPFQw0GAbJ--4" value="" style="line;html=1;strokeWidth=1;align=left;verticalAlign=middle;spacingTop=-1;spacingLeft=3;spacingRight=3;rotatable=0;labelPosition=right;points=[];portConstraint=eastwest;" parent="zkfFHV4jXpPFQw0GAbJ--0" vertex="1">
          <mxGeometry y="52" width="340" height="8" as="geometry" />
        </mxCell>
        <mxCell id="mfBoTMyn1f0MOg0DyIH3-5" value="+initialize(URL url, ResourceBundle rb)&lt;span style=&quot;text-align: center&quot;&gt;&amp;nbsp;: void&lt;/span&gt;" style="text;html=1;strokeColor=none;fillColor=none;align=left;verticalAlign=middle;whiteSpace=wrap;rounded=0;" vertex="1" parent="zkfFHV4jXpPFQw0GAbJ--0">
          <mxGeometry y="60" width="340" height="20" as="geometry" />
        </mxCell>
        <mxCell id="zkfFHV4jXpPFQw0GAbJ--2" value="- handleSceneStock(ActionScene) : void" style="text;align=left;verticalAlign=top;spacingLeft=4;spacingRight=4;overflow=hidden;rotatable=0;points=[[0,0.5],[1,0.5]];portConstraint=eastwest;rounded=0;shadow=0;html=0;" parent="zkfFHV4jXpPFQw0GAbJ--0" vertex="1">
          <mxGeometry y="80" width="340" height="26" as="geometry" />
        </mxCell>
        <mxCell id="zkfFHV4jXpPFQw0GAbJ--3" value="- handleScenePurchase(ActionEvent event) : void" style="text;align=left;verticalAlign=top;spacingLeft=4;spacingRight=4;overflow=hidden;rotatable=0;points=[[0,0.5],[1,0.5]];portConstraint=eastwest;rounded=0;shadow=0;html=0;" parent="zkfFHV4jXpPFQw0GAbJ--0" vertex="1">
          <mxGeometry y="106" width="340" height="26" as="geometry" />
        </mxCell>
        <mxCell id="mfBoTMyn1f0MOg0DyIH3-3" value="&lt;span&gt;- handleSceneSell(ActionEvent event)&lt;/span&gt;&lt;span style=&quot;text-align: center&quot;&gt;&amp;nbsp;: void&lt;/span&gt;" style="text;html=1;strokeColor=none;fillColor=none;align=left;verticalAlign=middle;whiteSpace=wrap;rounded=0;" vertex="1" parent="zkfFHV4jXpPFQw0GAbJ--0">
          <mxGeometry y="132" width="340" height="20" as="geometry" />
        </mxCell>
        <mxCell id="mfBoTMyn1f0MOg0DyIH3-4" value="- handleLogOut(ActionEvent event)&amp;nbsp;&lt;span style=&quot;text-align: center&quot;&gt;&amp;nbsp;: void&lt;/span&gt;" style="text;html=1;strokeColor=none;fillColor=none;align=left;verticalAlign=middle;whiteSpace=wrap;rounded=0;" vertex="1" parent="zkfFHV4jXpPFQw0GAbJ--0">
          <mxGeometry y="152" width="340" height="20" as="geometry" />
        </mxCell>
        <mxCell id="mfBoTMyn1f0MOg0DyIH3-15" value="SellController" style="swimlane;fontStyle=1;align=center;verticalAlign=top;childLayout=stackLayout;horizontal=1;startSize=26;horizontalStack=0;resizeParent=1;resizeParentMax=0;resizeLast=0;collapsible=1;marginBottom=0;" vertex="1" parent="WIyWlLk6GJQsqaUBKTNV-1">
          <mxGeometry x="440" y="90" width="370" height="480" as="geometry" />
        </mxCell>
        <mxCell id="mfBoTMyn1f0MOg0DyIH3-16" value="-Image1 : ImageView" style="text;strokeColor=none;fillColor=none;align=left;verticalAlign=top;spacingLeft=4;spacingRight=4;overflow=hidden;rotatable=0;points=[[0,0.5],[1,0.5]];portConstraint=eastwest;" vertex="1" parent="mfBoTMyn1f0MOg0DyIH3-15">
          <mxGeometry y="26" width="370" height="26" as="geometry" />
        </mxCell>
        <mxCell id="mfBoTMyn1f0MOg0DyIH3-35" value="-Image2 :&amp;nbsp;&lt;span&gt;ImageView&lt;/span&gt;" style="text;html=1;strokeColor=none;fillColor=none;align=left;verticalAlign=middle;whiteSpace=wrap;rounded=0;" vertex="1" parent="mfBoTMyn1f0MOg0DyIH3-15">
          <mxGeometry y="52" width="370" height="20" as="geometry" />
        </mxCell>
        <mxCell id="mfBoTMyn1f0MOg0DyIH3-36" value="&lt;span&gt;-Image3 :&amp;nbsp;&lt;/span&gt;&lt;span&gt;ImageView&lt;/span&gt;" style="text;html=1;strokeColor=none;fillColor=none;align=left;verticalAlign=middle;whiteSpace=wrap;rounded=0;" vertex="1" parent="mfBoTMyn1f0MOg0DyIH3-15">
          <mxGeometry y="72" width="370" height="20" as="geometry" />
        </mxCell>
        <mxCell id="mfBoTMyn1f0MOg0DyIH3-37" value="&lt;span&gt;-Image4 :&amp;nbsp;&lt;/span&gt;&lt;span&gt;ImageView&lt;/span&gt;" style="text;html=1;strokeColor=none;fillColor=none;align=left;verticalAlign=middle;whiteSpace=wrap;rounded=0;" vertex="1" parent="mfBoTMyn1f0MOg0DyIH3-15">
          <mxGeometry y="92" width="370" height="20" as="geometry" />
        </mxCell>
        <mxCell id="mfBoTMyn1f0MOg0DyIH3-19" value="&lt;span&gt;-label1 : Label&lt;/span&gt;" style="text;html=1;strokeColor=none;fillColor=none;align=left;verticalAlign=middle;whiteSpace=wrap;rounded=0;" vertex="1" parent="mfBoTMyn1f0MOg0DyIH3-15">
          <mxGeometry y="112" width="370" height="20" as="geometry" />
        </mxCell>
        <mxCell id="mfBoTMyn1f0MOg0DyIH3-38" value="&lt;span&gt;-label2 : Label&lt;/span&gt;" style="text;html=1;strokeColor=none;fillColor=none;align=left;verticalAlign=middle;whiteSpace=wrap;rounded=0;" vertex="1" parent="mfBoTMyn1f0MOg0DyIH3-15">
          <mxGeometry y="132" width="370" height="20" as="geometry" />
        </mxCell>
        <mxCell id="mfBoTMyn1f0MOg0DyIH3-39" value="&lt;span&gt;-label3 : Label&lt;/span&gt;" style="text;html=1;strokeColor=none;fillColor=none;align=left;verticalAlign=middle;whiteSpace=wrap;rounded=0;" vertex="1" parent="mfBoTMyn1f0MOg0DyIH3-15">
          <mxGeometry y="152" width="370" height="20" as="geometry" />
        </mxCell>
        <mxCell id="mfBoTMyn1f0MOg0DyIH3-40" value="&lt;span&gt;-label4 : Label&lt;/span&gt;" style="text;html=1;strokeColor=none;fillColor=none;align=left;verticalAlign=middle;whiteSpace=wrap;rounded=0;" vertex="1" parent="mfBoTMyn1f0MOg0DyIH3-15">
          <mxGeometry y="172" width="370" height="20" as="geometry" />
        </mxCell>
        <mxCell id="mfBoTMyn1f0MOg0DyIH3-20" value="-spnSCrab : Spinner" style="text;html=1;strokeColor=none;fillColor=none;align=left;verticalAlign=middle;whiteSpace=wrap;rounded=0;" vertex="1" parent="mfBoTMyn1f0MOg0DyIH3-15">
          <mxGeometry y="192" width="370" height="28" as="geometry" />
        </mxCell>
        <mxCell id="mfBoTMyn1f0MOg0DyIH3-41" value="&lt;span&gt;-spnSPrawn : Spinner&lt;/span&gt;" style="text;html=1;strokeColor=none;fillColor=none;align=left;verticalAlign=middle;whiteSpace=wrap;rounded=0;" vertex="1" parent="mfBoTMyn1f0MOg0DyIH3-15">
          <mxGeometry y="220" width="370" height="20" as="geometry" />
        </mxCell>
        <mxCell id="mfBoTMyn1f0MOg0DyIH3-42" value="&lt;span&gt;-spnSScallop : Spinner&lt;/span&gt;" style="text;html=1;strokeColor=none;fillColor=none;align=left;verticalAlign=middle;whiteSpace=wrap;rounded=0;" vertex="1" parent="mfBoTMyn1f0MOg0DyIH3-15">
          <mxGeometry y="240" width="370" height="20" as="geometry" />
        </mxCell>
        <mxCell id="mfBoTMyn1f0MOg0DyIH3-43" value="&lt;span&gt;-spnSSalmon : Spinner&lt;/span&gt;" style="text;html=1;strokeColor=none;fillColor=none;align=left;verticalAlign=middle;whiteSpace=wrap;rounded=0;" vertex="1" parent="mfBoTMyn1f0MOg0DyIH3-15">
          <mxGeometry y="260" width="370" height="20" as="geometry" />
        </mxCell>
        <mxCell id="mfBoTMyn1f0MOg0DyIH3-21" value="-sellCrab : Label" style="text;html=1;strokeColor=none;fillColor=none;align=left;verticalAlign=middle;whiteSpace=wrap;rounded=0;" vertex="1" parent="mfBoTMyn1f0MOg0DyIH3-15">
          <mxGeometry y="280" width="370" height="20" as="geometry" />
        </mxCell>
        <mxCell id="mfBoTMyn1f0MOg0DyIH3-44" value="&lt;span&gt;-sellPrawn : Label&lt;/span&gt;" style="text;html=1;strokeColor=none;fillColor=none;align=left;verticalAlign=middle;whiteSpace=wrap;rounded=0;" vertex="1" parent="mfBoTMyn1f0MOg0DyIH3-15">
          <mxGeometry y="300" width="370" height="20" as="geometry" />
        </mxCell>
        <mxCell id="mfBoTMyn1f0MOg0DyIH3-45" value="&lt;span&gt;-sellScallop : Label&lt;/span&gt;" style="text;html=1;strokeColor=none;fillColor=none;align=left;verticalAlign=middle;whiteSpace=wrap;rounded=0;" vertex="1" parent="mfBoTMyn1f0MOg0DyIH3-15">
          <mxGeometry y="320" width="370" height="20" as="geometry" />
        </mxCell>
        <mxCell id="mfBoTMyn1f0MOg0DyIH3-46" value="&lt;span&gt;-sellSalmon: Label&lt;/span&gt;" style="text;html=1;strokeColor=none;fillColor=none;align=left;verticalAlign=middle;whiteSpace=wrap;rounded=0;" vertex="1" parent="mfBoTMyn1f0MOg0DyIH3-15">
          <mxGeometry y="340" width="370" height="20" as="geometry" />
        </mxCell>
        <mxCell id="mfBoTMyn1f0MOg0DyIH3-22" value="-tfTotal : TextField&amp;nbsp;" style="text;html=1;strokeColor=none;fillColor=none;align=left;verticalAlign=middle;whiteSpace=wrap;rounded=0;" vertex="1" parent="mfBoTMyn1f0MOg0DyIH3-15">
          <mxGeometry y="360" width="370" height="20" as="geometry" />
        </mxCell>
        <mxCell id="mfBoTMyn1f0MOg0DyIH3-17" value="" style="line;strokeWidth=1;fillColor=none;align=left;verticalAlign=middle;spacingTop=-1;spacingLeft=3;spacingRight=3;rotatable=0;labelPosition=right;points=[];portConstraint=eastwest;" vertex="1" parent="mfBoTMyn1f0MOg0DyIH3-15">
          <mxGeometry y="380" width="370" height="20" as="geometry" />
        </mxCell>
        <mxCell id="mfBoTMyn1f0MOg0DyIH3-28" value="+initialize(URL url, ResourceBundle rb)&lt;span style=&quot;text-align: center&quot;&gt;&amp;nbsp;: void&lt;/span&gt;" style="text;html=1;strokeColor=none;fillColor=none;align=left;verticalAlign=middle;whiteSpace=wrap;rounded=0;" vertex="1" parent="mfBoTMyn1f0MOg0DyIH3-15">
          <mxGeometry y="400" width="370" height="20" as="geometry" />
        </mxCell>
        <mxCell id="mfBoTMyn1f0MOg0DyIH3-23" value="-handleGoBackMain(ActionEvent event)&lt;span style=&quot;text-align: center&quot;&gt;&amp;nbsp;: void&lt;/span&gt;" style="text;html=1;strokeColor=none;fillColor=none;align=left;verticalAlign=middle;whiteSpace=wrap;rounded=0;" vertex="1" parent="mfBoTMyn1f0MOg0DyIH3-15">
          <mxGeometry y="420" width="370" height="20" as="geometry" />
        </mxCell>
        <mxCell id="mfBoTMyn1f0MOg0DyIH3-24" value="-handleToSell(ActionEvent event)&lt;span style=&quot;text-align: center&quot;&gt;&amp;nbsp;: void&lt;/span&gt;" style="text;html=1;strokeColor=none;fillColor=none;align=left;verticalAlign=middle;whiteSpace=wrap;rounded=0;" vertex="1" parent="mfBoTMyn1f0MOg0DyIH3-15">
          <mxGeometry y="440" width="370" height="20" as="geometry" />
        </mxCell>
        <mxCell id="mfBoTMyn1f0MOg0DyIH3-25" value="-handleTotal(ActionEvent event)&lt;span style=&quot;text-align: center&quot;&gt;&amp;nbsp;: void&lt;/span&gt;" style="text;html=1;strokeColor=none;fillColor=none;align=left;verticalAlign=middle;whiteSpace=wrap;rounded=0;" vertex="1" parent="mfBoTMyn1f0MOg0DyIH3-15">
          <mxGeometry y="460" width="370" height="20" as="geometry" />
        </mxCell>
        <mxCell id="714EFkH2jvjugC_4Z7wI-11" value="" style="endArrow=block;endFill=1;html=1;edgeStyle=orthogonalEdgeStyle;align=left;verticalAlign=top;exitX=0.379;exitY=-0.005;exitDx=0;exitDy=0;exitPerimeter=0;" edge="1" parent="WIyWlLk6GJQsqaUBKTNV-1" source="zkfFHV4jXpPFQw0GAbJ--0">
          <mxGeometry x="-1" relative="1" as="geometry">
            <mxPoint x="173" y="190" as="sourcePoint" />
            <mxPoint x="603" y="88" as="targetPoint" />
            <Array as="points">
              <mxPoint x="173" y="57" />
              <mxPoint x="603" y="57" />
            </Array>
          </mxGeometry>
        </mxCell>
        <mxCell id="714EFkH2jvjugC_4Z7wI-12" value="1" style="edgeLabel;resizable=0;html=1;align=left;verticalAlign=bottom;" connectable="0" vertex="1" parent="714EFkH2jvjugC_4Z7wI-11">
          <mxGeometry x="-1" relative="1" as="geometry" />
        </mxCell>
        <mxCell id="714EFkH2jvjugC_4Z7wI-13" value="Handle" style="text;html=1;align=center;verticalAlign=middle;resizable=0;points=[];autosize=1;" vertex="1" parent="WIyWlLk6GJQsqaUBKTNV-1">
          <mxGeometry x="187" y="68" width="48" height="18" as="geometry" />
        </mxCell>
        <mxCell id="NbRYpETx-06mappdJxJU-5" value="JavaFXProject_TEST" style="swimlane;fontStyle=1;align=center;verticalAlign=top;childLayout=stackLayout;horizontal=1;startSize=26;horizontalStack=0;resizeParent=1;resizeParentMax=0;resizeLast=0;collapsible=1;marginBottom=0;" vertex="1" parent="WIyWlLk6GJQsqaUBKTNV-1">
          <mxGeometry x="65" y="772" width="160" height="74" as="geometry" />
        </mxCell>
        <mxCell id="NbRYpETx-06mappdJxJU-7" value="" style="line;strokeWidth=1;fillColor=none;align=left;verticalAlign=middle;spacingTop=-1;spacingLeft=3;spacingRight=3;rotatable=0;labelPosition=right;points=[];portConstraint=eastwest;" vertex="1" parent="NbRYpETx-06mappdJxJU-5">
          <mxGeometry y="26" width="160" height="8" as="geometry" />
        </mxCell>
        <mxCell id="NbRYpETx-06mappdJxJU-8" value="start(Stage stage) : void" style="text;html=1;strokeColor=none;fillColor=none;align=center;verticalAlign=middle;whiteSpace=wrap;rounded=0;" vertex="1" parent="NbRYpETx-06mappdJxJU-5">
          <mxGeometry y="34" width="160" height="20" as="geometry" />
        </mxCell>
        <mxCell id="NbRYpETx-06mappdJxJU-9" value="main(String[] args) : void&amp;nbsp;" style="text;html=1;strokeColor=none;fillColor=none;align=center;verticalAlign=middle;whiteSpace=wrap;rounded=0;" vertex="1" parent="NbRYpETx-06mappdJxJU-5">
          <mxGeometry y="54" width="160" height="20" as="geometry" />
        </mxCell>
        <mxCell id="NbRYpETx-06mappdJxJU-10" value="" style="endArrow=block;endFill=1;html=1;edgeStyle=orthogonalEdgeStyle;align=left;verticalAlign=top;exitX=0.47;exitY=0.011;exitDx=0;exitDy=0;exitPerimeter=0;" edge="1" parent="WIyWlLk6GJQsqaUBKTNV-1" source="NbRYpETx-06mappdJxJU-5">
          <mxGeometry x="-1" y="-56" relative="1" as="geometry">
            <mxPoint x="140" y="765" as="sourcePoint" />
            <mxPoint x="141" y="292" as="targetPoint" />
            <Array as="points">
              <mxPoint x="140" y="532" />
            </Array>
            <mxPoint x="-28" y="48" as="offset" />
          </mxGeometry>
        </mxCell>
        <mxCell id="NbRYpETx-06mappdJxJU-11" value="1" style="edgeLabel;resizable=0;html=1;align=left;verticalAlign=bottom;" connectable="0" vertex="1" parent="NbRYpETx-06mappdJxJU-10">
          <mxGeometry x="-1" relative="1" as="geometry" />
        </mxCell>
        <mxCell id="NbRYpETx-06mappdJxJU-13" value="Contain" style="text;html=1;align=center;verticalAlign=middle;resizable=0;points=[];autosize=1;" vertex="1" parent="WIyWlLk6GJQsqaUBKTNV-1">
          <mxGeometry x="144" y="702" width="51" height="18" as="geometry" />
        </mxCell>
        <mxCell id="Fz-zrAkuoBcE2psbTT0v-1" value="PurchaseController" style="swimlane;fontStyle=1;align=center;verticalAlign=top;childLayout=stackLayout;horizontal=1;startSize=26;horizontalStack=0;resizeParent=1;resizeParentMax=0;resizeLast=0;collapsible=1;marginBottom=0;" vertex="1" parent="WIyWlLk6GJQsqaUBKTNV-1">
          <mxGeometry x="427" y="640" width="370" height="458" as="geometry" />
        </mxCell>
        <mxCell id="Fz-zrAkuoBcE2psbTT0v-2" value="&lt;span&gt;-Image1 :&amp;nbsp;&lt;/span&gt;&lt;span&gt;ImageView&lt;/span&gt;" style="text;html=1;strokeColor=none;fillColor=none;align=center;verticalAlign=middle;whiteSpace=wrap;rounded=0;" vertex="1" parent="Fz-zrAkuoBcE2psbTT0v-1">
          <mxGeometry y="26" width="370" height="20" as="geometry" />
        </mxCell>
        <mxCell id="Fz-zrAkuoBcE2psbTT0v-3" value="&lt;span style=&quot;text-align: left&quot;&gt;-Image2 :&amp;nbsp;&lt;/span&gt;&lt;span style=&quot;text-align: left&quot;&gt;ImageView&lt;/span&gt;" style="text;html=1;strokeColor=none;fillColor=none;align=center;verticalAlign=middle;whiteSpace=wrap;rounded=0;" vertex="1" parent="Fz-zrAkuoBcE2psbTT0v-1">
          <mxGeometry y="46" width="370" height="20" as="geometry" />
        </mxCell>
        <mxCell id="Fz-zrAkuoBcE2psbTT0v-4" value="&lt;span style=&quot;text-align: left&quot;&gt;-Image3 :&amp;nbsp;&lt;/span&gt;&lt;span style=&quot;text-align: left&quot;&gt;ImageView&lt;/span&gt;" style="text;html=1;strokeColor=none;fillColor=none;align=center;verticalAlign=middle;whiteSpace=wrap;rounded=0;" vertex="1" parent="Fz-zrAkuoBcE2psbTT0v-1">
          <mxGeometry y="66" width="370" height="20" as="geometry" />
        </mxCell>
        <mxCell id="Fz-zrAkuoBcE2psbTT0v-5" value="&lt;span style=&quot;text-align: left&quot;&gt;-Image4 :&amp;nbsp;&lt;/span&gt;&lt;span style=&quot;text-align: left&quot;&gt;ImageView&lt;/span&gt;" style="text;html=1;strokeColor=none;fillColor=none;align=center;verticalAlign=middle;whiteSpace=wrap;rounded=0;" vertex="1" parent="Fz-zrAkuoBcE2psbTT0v-1">
          <mxGeometry y="86" width="370" height="20" as="geometry" />
        </mxCell>
        <mxCell id="Fz-zrAkuoBcE2psbTT0v-6" value="&lt;span style=&quot;text-align: left&quot;&gt;-label1 : Label&lt;/span&gt;" style="text;html=1;strokeColor=none;fillColor=none;align=center;verticalAlign=middle;whiteSpace=wrap;rounded=0;" vertex="1" parent="Fz-zrAkuoBcE2psbTT0v-1">
          <mxGeometry y="106" width="370" height="20" as="geometry" />
        </mxCell>
        <mxCell id="Fz-zrAkuoBcE2psbTT0v-7" value="&lt;span style=&quot;text-align: left&quot;&gt;-label2 : Label&lt;/span&gt;" style="text;html=1;strokeColor=none;fillColor=none;align=center;verticalAlign=middle;whiteSpace=wrap;rounded=0;" vertex="1" parent="Fz-zrAkuoBcE2psbTT0v-1">
          <mxGeometry y="126" width="370" height="20" as="geometry" />
        </mxCell>
        <mxCell id="Fz-zrAkuoBcE2psbTT0v-8" value="&lt;span style=&quot;text-align: left&quot;&gt;-label3 : Label&lt;/span&gt;" style="text;html=1;strokeColor=none;fillColor=none;align=center;verticalAlign=middle;whiteSpace=wrap;rounded=0;" vertex="1" parent="Fz-zrAkuoBcE2psbTT0v-1">
          <mxGeometry y="146" width="370" height="24" as="geometry" />
        </mxCell>
        <mxCell id="Fz-zrAkuoBcE2psbTT0v-9" value="&lt;span style=&quot;text-align: left&quot;&gt;-label4 : Label&lt;/span&gt;" style="text;html=1;strokeColor=none;fillColor=none;align=center;verticalAlign=middle;whiteSpace=wrap;rounded=0;" vertex="1" parent="Fz-zrAkuoBcE2psbTT0v-1">
          <mxGeometry y="170" width="370" height="20" as="geometry" />
        </mxCell>
        <mxCell id="Fz-zrAkuoBcE2psbTT0v-10" value="&lt;span style=&quot;text-align: left&quot;&gt;-spnCrab : Spinner&lt;/span&gt;" style="text;html=1;strokeColor=none;fillColor=none;align=center;verticalAlign=middle;whiteSpace=wrap;rounded=0;" vertex="1" parent="Fz-zrAkuoBcE2psbTT0v-1">
          <mxGeometry y="190" width="370" height="20" as="geometry" />
        </mxCell>
        <mxCell id="Fz-zrAkuoBcE2psbTT0v-11" value="&lt;span style=&quot;text-align: left&quot;&gt;-spnSPrawn : Spinner&lt;/span&gt;" style="text;html=1;strokeColor=none;fillColor=none;align=center;verticalAlign=middle;whiteSpace=wrap;rounded=0;" vertex="1" parent="Fz-zrAkuoBcE2psbTT0v-1">
          <mxGeometry y="210" width="370" height="20" as="geometry" />
        </mxCell>
        <mxCell id="Fz-zrAkuoBcE2psbTT0v-12" value="&lt;span style=&quot;text-align: left&quot;&gt;-spnScallop : Spinner&lt;/span&gt;" style="text;html=1;strokeColor=none;fillColor=none;align=center;verticalAlign=middle;whiteSpace=wrap;rounded=0;" vertex="1" parent="Fz-zrAkuoBcE2psbTT0v-1">
          <mxGeometry y="230" width="370" height="20" as="geometry" />
        </mxCell>
        <mxCell id="Fz-zrAkuoBcE2psbTT0v-13" value="&lt;span style=&quot;text-align: left&quot;&gt;-spnSalmon : Spinner&lt;/span&gt;" style="text;html=1;strokeColor=none;fillColor=none;align=center;verticalAlign=middle;whiteSpace=wrap;rounded=0;" vertex="1" parent="Fz-zrAkuoBcE2psbTT0v-1">
          <mxGeometry y="250" width="370" height="20" as="geometry" />
        </mxCell>
        <mxCell id="Fz-zrAkuoBcE2psbTT0v-14" value="-priceCrab :&amp;nbsp;Label" style="text;html=1;strokeColor=none;fillColor=none;align=center;verticalAlign=middle;whiteSpace=wrap;rounded=0;" vertex="1" parent="Fz-zrAkuoBcE2psbTT0v-1">
          <mxGeometry y="270" width="370" height="20" as="geometry" />
        </mxCell>
        <mxCell id="Fz-zrAkuoBcE2psbTT0v-15" value="-pricePrawn :&amp;nbsp;Label" style="text;html=1;strokeColor=none;fillColor=none;align=center;verticalAlign=middle;whiteSpace=wrap;rounded=0;" vertex="1" parent="Fz-zrAkuoBcE2psbTT0v-1">
          <mxGeometry y="290" width="370" height="20" as="geometry" />
        </mxCell>
        <mxCell id="Fz-zrAkuoBcE2psbTT0v-16" value="-priceScallop :&amp;nbsp;Label" style="text;html=1;strokeColor=none;fillColor=none;align=center;verticalAlign=middle;whiteSpace=wrap;rounded=0;" vertex="1" parent="Fz-zrAkuoBcE2psbTT0v-1">
          <mxGeometry y="310" width="370" height="20" as="geometry" />
        </mxCell>
        <mxCell id="Fz-zrAkuoBcE2psbTT0v-17" value="-priceSalmon :&amp;nbsp;Label" style="text;html=1;strokeColor=none;fillColor=none;align=center;verticalAlign=middle;whiteSpace=wrap;rounded=0;" vertex="1" parent="Fz-zrAkuoBcE2psbTT0v-1">
          <mxGeometry y="330" width="370" height="20" as="geometry" />
        </mxCell>
        <mxCell id="Fz-zrAkuoBcE2psbTT0v-18" value="&lt;span style=&quot;text-align: left&quot;&gt;-tfTotal : TextField&amp;nbsp;&lt;/span&gt;" style="text;html=1;strokeColor=none;fillColor=none;align=center;verticalAlign=middle;whiteSpace=wrap;rounded=0;" vertex="1" parent="Fz-zrAkuoBcE2psbTT0v-1">
          <mxGeometry y="350" width="370" height="20" as="geometry" />
        </mxCell>
        <mxCell id="Fz-zrAkuoBcE2psbTT0v-20" value="" style="line;strokeWidth=1;fillColor=none;align=left;verticalAlign=middle;spacingTop=-1;spacingLeft=3;spacingRight=3;rotatable=0;labelPosition=right;points=[];portConstraint=eastwest;" vertex="1" parent="Fz-zrAkuoBcE2psbTT0v-1">
          <mxGeometry y="370" width="370" height="8" as="geometry" />
        </mxCell>
        <mxCell id="Fz-zrAkuoBcE2psbTT0v-21" value="+initialize(URL url, ResourceBundle rb)&amp;nbsp;: void" style="text;html=1;strokeColor=none;fillColor=none;align=center;verticalAlign=middle;whiteSpace=wrap;rounded=0;" vertex="1" parent="Fz-zrAkuoBcE2psbTT0v-1">
          <mxGeometry y="378" width="370" height="20" as="geometry" />
        </mxCell>
        <mxCell id="Fz-zrAkuoBcE2psbTT0v-22" value="-handleGoBcakMain(ActionEvent event)&amp;nbsp;: void" style="text;html=1;strokeColor=none;fillColor=none;align=center;verticalAlign=middle;whiteSpace=wrap;rounded=0;" vertex="1" parent="Fz-zrAkuoBcE2psbTT0v-1">
          <mxGeometry y="398" width="370" height="20" as="geometry" />
        </mxCell>
        <mxCell id="Fz-zrAkuoBcE2psbTT0v-23" value="-handleValuePurchase(ActionEvent event)&amp;nbsp;: void" style="text;html=1;strokeColor=none;fillColor=none;align=center;verticalAlign=middle;whiteSpace=wrap;rounded=0;" vertex="1" parent="Fz-zrAkuoBcE2psbTT0v-1">
          <mxGeometry y="418" width="370" height="20" as="geometry" />
        </mxCell>
        <mxCell id="Fz-zrAkuoBcE2psbTT0v-24" value="-handleTotal(ActionEvent event)&amp;nbsp;: void" style="text;html=1;strokeColor=none;fillColor=none;align=center;verticalAlign=middle;whiteSpace=wrap;rounded=0;" vertex="1" parent="Fz-zrAkuoBcE2psbTT0v-1">
          <mxGeometry y="438" width="370" height="20" as="geometry" />
        </mxCell>
        <mxCell id="UazscKnlA4gNwpAuMZIE-0" value="StockController" style="swimlane;fontStyle=1;align=center;verticalAlign=top;childLayout=stackLayout;horizontal=1;startSize=26;horizontalStack=0;resizeParent=1;resizeParentMax=0;resizeLast=0;collapsible=1;marginBottom=0;" vertex="1" parent="WIyWlLk6GJQsqaUBKTNV-1">
          <mxGeometry x="13" y="1180" width="419" height="480" as="geometry" />
        </mxCell>
        <mxCell id="UazscKnlA4gNwpAuMZIE-1" value="&lt;span style=&quot;text-align: left&quot;&gt;-Image1 :&amp;nbsp;&lt;/span&gt;&lt;span style=&quot;text-align: left&quot;&gt;ImageView&lt;/span&gt;" style="text;html=1;strokeColor=none;fillColor=none;align=center;verticalAlign=middle;whiteSpace=wrap;rounded=0;" vertex="1" parent="UazscKnlA4gNwpAuMZIE-0">
          <mxGeometry y="26" width="419" height="20" as="geometry" />
        </mxCell>
        <mxCell id="UazscKnlA4gNwpAuMZIE-2" value="&lt;span style=&quot;text-align: left&quot;&gt;-Image2 :&amp;nbsp;&lt;/span&gt;&lt;span style=&quot;text-align: left&quot;&gt;ImageView&lt;/span&gt;" style="text;html=1;strokeColor=none;fillColor=none;align=center;verticalAlign=middle;whiteSpace=wrap;rounded=0;" vertex="1" parent="UazscKnlA4gNwpAuMZIE-0">
          <mxGeometry y="46" width="419" height="20" as="geometry" />
        </mxCell>
        <mxCell id="UazscKnlA4gNwpAuMZIE-3" value="&lt;span style=&quot;text-align: left&quot;&gt;-Image3 :&amp;nbsp;&lt;/span&gt;&lt;span style=&quot;text-align: left&quot;&gt;ImageView&lt;/span&gt;" style="text;html=1;strokeColor=none;fillColor=none;align=center;verticalAlign=middle;whiteSpace=wrap;rounded=0;" vertex="1" parent="UazscKnlA4gNwpAuMZIE-0">
          <mxGeometry y="66" width="419" height="20" as="geometry" />
        </mxCell>
        <mxCell id="UazscKnlA4gNwpAuMZIE-4" value="&lt;span style=&quot;text-align: left&quot;&gt;-Image4 :&amp;nbsp;&lt;/span&gt;&lt;span style=&quot;text-align: left&quot;&gt;ImageView&lt;/span&gt;" style="text;html=1;strokeColor=none;fillColor=none;align=center;verticalAlign=middle;whiteSpace=wrap;rounded=0;" vertex="1" parent="UazscKnlA4gNwpAuMZIE-0">
          <mxGeometry y="86" width="419" height="20" as="geometry" />
        </mxCell>
        <mxCell id="UazscKnlA4gNwpAuMZIE-5" value="&lt;span style=&quot;text-align: left&quot;&gt;-label1 : Label&lt;/span&gt;" style="text;html=1;strokeColor=none;fillColor=none;align=center;verticalAlign=middle;whiteSpace=wrap;rounded=0;" vertex="1" parent="UazscKnlA4gNwpAuMZIE-0">
          <mxGeometry y="106" width="419" height="20" as="geometry" />
        </mxCell>
        <mxCell id="UazscKnlA4gNwpAuMZIE-6" value="&lt;span style=&quot;text-align: left&quot;&gt;-label2 : Label&lt;/span&gt;" style="text;html=1;strokeColor=none;fillColor=none;align=center;verticalAlign=middle;whiteSpace=wrap;rounded=0;" vertex="1" parent="UazscKnlA4gNwpAuMZIE-0">
          <mxGeometry y="126" width="419" height="20" as="geometry" />
        </mxCell>
        <mxCell id="UazscKnlA4gNwpAuMZIE-7" value="&lt;span style=&quot;text-align: left&quot;&gt;-label3 : Label&lt;/span&gt;" style="text;html=1;strokeColor=none;fillColor=none;align=center;verticalAlign=middle;whiteSpace=wrap;rounded=0;" vertex="1" parent="UazscKnlA4gNwpAuMZIE-0">
          <mxGeometry y="146" width="419" height="20" as="geometry" />
        </mxCell>
        <mxCell id="UazscKnlA4gNwpAuMZIE-8" value="&lt;span style=&quot;text-align: left&quot;&gt;-label4 : Label&lt;/span&gt;" style="text;html=1;strokeColor=none;fillColor=none;align=center;verticalAlign=middle;whiteSpace=wrap;rounded=0;" vertex="1" parent="UazscKnlA4gNwpAuMZIE-0">
          <mxGeometry y="166" width="419" height="20" as="geometry" />
        </mxCell>
        <mxCell id="UazscKnlA4gNwpAuMZIE-9" value="&lt;span style=&quot;text-align: left&quot;&gt;-labelSimpanBeli1&amp;nbsp;: Label&lt;/span&gt;" style="text;html=1;strokeColor=none;fillColor=none;align=center;verticalAlign=middle;whiteSpace=wrap;rounded=0;" vertex="1" parent="UazscKnlA4gNwpAuMZIE-0">
          <mxGeometry y="186" width="419" height="20" as="geometry" />
        </mxCell>
        <mxCell id="UazscKnlA4gNwpAuMZIE-10" value="&lt;span style=&quot;text-align: left&quot;&gt;-labelSimpanBeli2 : Label&lt;/span&gt;" style="text;html=1;strokeColor=none;fillColor=none;align=center;verticalAlign=middle;whiteSpace=wrap;rounded=0;" vertex="1" parent="UazscKnlA4gNwpAuMZIE-0">
          <mxGeometry y="206" width="419" height="20" as="geometry" />
        </mxCell>
        <mxCell id="UazscKnlA4gNwpAuMZIE-11" value="&lt;span style=&quot;text-align: left&quot;&gt;-labelSimpanBeli3 : Label&lt;/span&gt;" style="text;html=1;strokeColor=none;fillColor=none;align=center;verticalAlign=middle;whiteSpace=wrap;rounded=0;" vertex="1" parent="UazscKnlA4gNwpAuMZIE-0">
          <mxGeometry y="226" width="419" height="20" as="geometry" />
        </mxCell>
        <mxCell id="UazscKnlA4gNwpAuMZIE-12" value="&lt;span style=&quot;text-align: left&quot;&gt;-labelSimpanBeli4 : Label&lt;/span&gt;" style="text;html=1;strokeColor=none;fillColor=none;align=center;verticalAlign=middle;whiteSpace=wrap;rounded=0;" vertex="1" parent="UazscKnlA4gNwpAuMZIE-0">
          <mxGeometry y="246" width="419" height="20" as="geometry" />
        </mxCell>
        <mxCell id="UazscKnlA4gNwpAuMZIE-13" value="&lt;span style=&quot;text-align: left&quot;&gt;-label5&amp;nbsp;: Label&lt;/span&gt;" style="text;html=1;strokeColor=none;fillColor=none;align=center;verticalAlign=middle;whiteSpace=wrap;rounded=0;" vertex="1" parent="UazscKnlA4gNwpAuMZIE-0">
          <mxGeometry y="266" width="419" height="20" as="geometry" />
        </mxCell>
        <mxCell id="UazscKnlA4gNwpAuMZIE-14" value="&lt;span style=&quot;text-align: left&quot;&gt;-label6&amp;nbsp;: Label&lt;/span&gt;" style="text;html=1;strokeColor=none;fillColor=none;align=center;verticalAlign=middle;whiteSpace=wrap;rounded=0;" vertex="1" parent="UazscKnlA4gNwpAuMZIE-0">
          <mxGeometry y="286" width="419" height="20" as="geometry" />
        </mxCell>
        <mxCell id="UazscKnlA4gNwpAuMZIE-20" value="" style="line;strokeWidth=1;fillColor=none;align=left;verticalAlign=middle;spacingTop=-1;spacingLeft=3;spacingRight=3;rotatable=0;labelPosition=right;points=[];portConstraint=eastwest;" vertex="1" parent="UazscKnlA4gNwpAuMZIE-0">
          <mxGeometry y="306" width="419" height="8" as="geometry" />
        </mxCell>
        <mxCell id="UazscKnlA4gNwpAuMZIE-22" value="+initialize(URL url, ResourceBundle rb)&amp;nbsp;: void" style="text;html=1;strokeColor=none;fillColor=none;align=center;verticalAlign=middle;whiteSpace=wrap;rounded=0;" vertex="1" parent="UazscKnlA4gNwpAuMZIE-0">
          <mxGeometry y="314" width="419" height="22" as="geometry" />
        </mxCell>
        <mxCell id="UazscKnlA4gNwpAuMZIE-21" value="-handleGoBackMain(ActionEvent event)&amp;nbsp;: void" style="text;html=1;strokeColor=none;fillColor=none;align=center;verticalAlign=middle;whiteSpace=wrap;rounded=0;" vertex="1" parent="UazscKnlA4gNwpAuMZIE-0">
          <mxGeometry y="336" width="419" height="20" as="geometry" />
        </mxCell>
        <mxCell id="UazscKnlA4gNwpAuMZIE-15" value="+dapatValuePurchase(String value, String value2, String value3, String value4) : void" style="text;html=1;strokeColor=none;fillColor=none;align=center;verticalAlign=middle;whiteSpace=wrap;rounded=0;" vertex="1" parent="UazscKnlA4gNwpAuMZIE-0">
          <mxGeometry y="356" width="419" height="40" as="geometry" />
        </mxCell>
        <mxCell id="UazscKnlA4gNwpAuMZIE-16" value="+dapatValueSell(String value,String value2,String value3,String value4) : void" style="text;html=1;strokeColor=none;fillColor=none;align=center;verticalAlign=middle;whiteSpace=wrap;rounded=0;" vertex="1" parent="UazscKnlA4gNwpAuMZIE-0">
          <mxGeometry y="396" width="419" height="20" as="geometry" />
        </mxCell>
        <mxCell id="UazscKnlA4gNwpAuMZIE-17" value="+simpanDataPurchase(String value,String value2,String value3,String value4) : void" style="text;html=1;strokeColor=none;fillColor=none;align=center;verticalAlign=middle;whiteSpace=wrap;rounded=0;" vertex="1" parent="UazscKnlA4gNwpAuMZIE-0">
          <mxGeometry y="416" width="419" height="31" as="geometry" />
        </mxCell>
        <mxCell id="UazscKnlA4gNwpAuMZIE-18" value="+simpanDataSell(String value5,String value6,String value7,String value8) :void" style="text;html=1;strokeColor=none;fillColor=none;align=center;verticalAlign=middle;whiteSpace=wrap;rounded=0;" vertex="1" parent="UazscKnlA4gNwpAuMZIE-0">
          <mxGeometry y="447" width="419" height="33" as="geometry" />
        </mxCell>
        <mxCell id="XNiJwl2A9tAsZuyhAK5P-0" value="LogOutController" style="swimlane;fontStyle=1;align=center;verticalAlign=top;childLayout=stackLayout;horizontal=1;startSize=26;horizontalStack=0;resizeParent=1;resizeParentMax=0;resizeLast=0;collapsible=1;marginBottom=0;" vertex="1" parent="WIyWlLk6GJQsqaUBKTNV-1">
          <mxGeometry x="449" y="1253" width="370" height="158" as="geometry" />
        </mxCell>
        <mxCell id="XNiJwl2A9tAsZuyhAK5P-1" value="-buttonYes :&amp;nbsp;Button" style="text;html=1;strokeColor=none;fillColor=none;align=center;verticalAlign=middle;whiteSpace=wrap;rounded=0;" vertex="1" parent="XNiJwl2A9tAsZuyhAK5P-0">
          <mxGeometry y="26" width="370" height="20" as="geometry" />
        </mxCell>
        <mxCell id="XNiJwl2A9tAsZuyhAK5P-2" value="-buttonNo :&amp;nbsp;Button" style="text;html=1;strokeColor=none;fillColor=none;align=center;verticalAlign=middle;whiteSpace=wrap;rounded=0;" vertex="1" parent="XNiJwl2A9tAsZuyhAK5P-0">
          <mxGeometry y="46" width="370" height="20" as="geometry" />
        </mxCell>
        <mxCell id="XNiJwl2A9tAsZuyhAK5P-3" value="-labelAsk : Label" style="text;html=1;strokeColor=none;fillColor=none;align=center;verticalAlign=middle;whiteSpace=wrap;rounded=0;" vertex="1" parent="XNiJwl2A9tAsZuyhAK5P-0">
          <mxGeometry y="66" width="370" height="20" as="geometry" />
        </mxCell>
        <mxCell id="XNiJwl2A9tAsZuyhAK5P-5" value="" style="line;strokeWidth=1;fillColor=none;align=left;verticalAlign=middle;spacingTop=-1;spacingLeft=3;spacingRight=3;rotatable=0;labelPosition=right;points=[];portConstraint=eastwest;" vertex="1" parent="XNiJwl2A9tAsZuyhAK5P-0">
          <mxGeometry y="86" width="370" height="8" as="geometry" />
        </mxCell>
        <mxCell id="XNiJwl2A9tAsZuyhAK5P-6" value="initialize(URL url, ResourceBundle rb)&amp;nbsp;: void" style="text;html=1;strokeColor=none;fillColor=none;align=center;verticalAlign=middle;whiteSpace=wrap;rounded=0;" vertex="1" parent="XNiJwl2A9tAsZuyhAK5P-0">
          <mxGeometry y="94" width="370" height="20" as="geometry" />
        </mxCell>
        <mxCell id="XNiJwl2A9tAsZuyhAK5P-7" value="-handleYes(ActionEvent event)&amp;nbsp;: void" style="text;html=1;strokeColor=none;fillColor=none;align=center;verticalAlign=middle;whiteSpace=wrap;rounded=0;" vertex="1" parent="XNiJwl2A9tAsZuyhAK5P-0">
          <mxGeometry y="114" width="370" height="20" as="geometry" />
        </mxCell>
        <mxCell id="XNiJwl2A9tAsZuyhAK5P-8" value="-handleGoBackMain(ActionEvent event) : void&amp;nbsp;" style="text;html=1;strokeColor=none;fillColor=none;align=center;verticalAlign=middle;whiteSpace=wrap;rounded=0;" vertex="1" parent="XNiJwl2A9tAsZuyhAK5P-0">
          <mxGeometry y="134" width="370" height="24" as="geometry" />
        </mxCell>
        <mxCell id="ytEvOS1A0uu5QeDHtLsP-2" value="&lt;font style=&quot;font-size: 12px&quot;&gt;Handle&lt;/font&gt;" style="endArrow=block;endFill=1;html=1;edgeStyle=orthogonalEdgeStyle;align=left;verticalAlign=top;entryX=0.425;entryY=0;entryDx=0;entryDy=0;entryPerimeter=0;" edge="1" parent="WIyWlLk6GJQsqaUBKTNV-1" target="XNiJwl2A9tAsZuyhAK5P-0">
          <mxGeometry x="0.3411" y="-12" relative="1" as="geometry">
            <mxPoint x="342" y="287" as="sourcePoint" />
            <mxPoint x="568" y="1058" as="targetPoint" />
            <Array as="points">
              <mxPoint x="342" y="1130" />
              <mxPoint x="606" y="1130" />
            </Array>
            <mxPoint as="offset" />
          </mxGeometry>
        </mxCell>
        <mxCell id="ytEvOS1A0uu5QeDHtLsP-4" value="1" style="text;html=1;align=center;verticalAlign=middle;resizable=0;points=[];autosize=1;" vertex="1" parent="WIyWlLk6GJQsqaUBKTNV-1">
          <mxGeometry x="616" y="1128" width="17" height="18" as="geometry" />
        </mxCell>
        <mxCell id="ytEvOS1A0uu5QeDHtLsP-9" value="&lt;font style=&quot;font-size: 12px&quot;&gt;Handle&lt;/font&gt;" style="endArrow=block;endFill=1;html=1;edgeStyle=orthogonalEdgeStyle;align=left;verticalAlign=top;entryX=-0.008;entryY=0.052;entryDx=0;entryDy=0;entryPerimeter=0;" edge="1" parent="WIyWlLk6GJQsqaUBKTNV-1" target="Fz-zrAkuoBcE2psbTT0v-1">
          <mxGeometry x="-0.8676" y="-21" relative="1" as="geometry">
            <mxPoint x="240" y="289" as="sourcePoint" />
            <mxPoint x="589" y="622" as="targetPoint" />
            <Array as="points">
              <mxPoint x="240" y="664" />
            </Array>
            <mxPoint as="offset" />
          </mxGeometry>
        </mxCell>
        <mxCell id="ytEvOS1A0uu5QeDHtLsP-11" value="1" style="text;html=1;align=center;verticalAlign=middle;resizable=0;points=[];autosize=1;" vertex="1" parent="WIyWlLk6GJQsqaUBKTNV-1">
          <mxGeometry x="208" y="292" width="17" height="18" as="geometry" />
        </mxCell>
        <mxCell id="ytEvOS1A0uu5QeDHtLsP-18" value="&lt;font style=&quot;font-size: 12px&quot;&gt;Handle&lt;/font&gt;" style="endArrow=block;endFill=1;html=1;edgeStyle=orthogonalEdgeStyle;align=left;verticalAlign=top;exitX=0.718;exitY=1.5;exitDx=0;exitDy=0;exitPerimeter=0;" edge="1" parent="WIyWlLk6GJQsqaUBKTNV-1" source="mfBoTMyn1f0MOg0DyIH3-4">
          <mxGeometry x="-0.337" y="-28" relative="1" as="geometry">
            <mxPoint x="288" y="356" as="sourcePoint" />
            <mxPoint x="288" y="1173" as="targetPoint" />
            <Array as="points">
              <mxPoint x="288" y="1173" />
            </Array>
            <mxPoint as="offset" />
          </mxGeometry>
        </mxCell>
        <mxCell id="ytEvOS1A0uu5QeDHtLsP-19" value="1" style="edgeLabel;resizable=0;html=1;align=left;verticalAlign=bottom;" connectable="0" vertex="1" parent="ytEvOS1A0uu5QeDHtLsP-18">
          <mxGeometry x="-1" relative="1" as="geometry">
            <mxPoint x="9" y="-14" as="offset" />
          </mxGeometry>
        </mxCell>
        <mxCell id="ytEvOS1A0uu5QeDHtLsP-20" value="1" style="text;html=1;align=center;verticalAlign=middle;resizable=0;points=[];autosize=1;" vertex="1" parent="WIyWlLk6GJQsqaUBKTNV-1">
          <mxGeometry x="298" y="294" width="17" height="18" as="geometry" />
        </mxCell>
        <mxCell id="ytEvOS1A0uu5QeDHtLsP-24" value="&lt;font style=&quot;font-size: 12px&quot;&gt;Linked&lt;/font&gt;" style="endArrow=block;endFill=1;html=1;edgeStyle=orthogonalEdgeStyle;align=left;verticalAlign=top;exitX=0.408;exitY=1.15;exitDx=0;exitDy=0;exitPerimeter=0;" edge="1" parent="WIyWlLk6GJQsqaUBKTNV-1" source="mfBoTMyn1f0MOg0DyIH3-25">
          <mxGeometry x="-0.6246" y="-12" relative="1" as="geometry">
            <mxPoint x="275" y="552" as="sourcePoint" />
            <mxPoint x="304" y="1176" as="targetPoint" />
            <Array as="points">
              <mxPoint x="591" y="585" />
              <mxPoint x="304" y="585" />
            </Array>
            <mxPoint as="offset" />
          </mxGeometry>
        </mxCell>
        <mxCell id="ytEvOS1A0uu5QeDHtLsP-36" value="SimpanPurchaseData.txt" style="html=1;" vertex="1" parent="WIyWlLk6GJQsqaUBKTNV-1">
          <mxGeometry x="569" y="1533" width="158" height="50" as="geometry" />
        </mxCell>
        <mxCell id="ytEvOS1A0uu5QeDHtLsP-37" value="SimpanSellData.txt" style="html=1;" vertex="1" parent="WIyWlLk6GJQsqaUBKTNV-1">
          <mxGeometry x="583" y="1610" width="144" height="50" as="geometry" />
        </mxCell>
        <mxCell id="ytEvOS1A0uu5QeDHtLsP-38" value="&lt;font style=&quot;font-size: 12px&quot;&gt;Show&lt;/font&gt;" style="endArrow=block;endFill=1;html=1;edgeStyle=orthogonalEdgeStyle;align=left;verticalAlign=top;entryX=0;entryY=0.5;entryDx=0;entryDy=0;exitX=1;exitY=0.5;exitDx=0;exitDy=0;" edge="1" parent="WIyWlLk6GJQsqaUBKTNV-1" source="UazscKnlA4gNwpAuMZIE-15" target="ytEvOS1A0uu5QeDHtLsP-36">
          <mxGeometry x="-0.5054" y="10" relative="1" as="geometry">
            <mxPoint x="266" y="1532" as="sourcePoint" />
            <mxPoint x="547" y="1610" as="targetPoint" />
            <Array as="points">
              <mxPoint x="498" y="1556" />
              <mxPoint x="498" y="1558" />
            </Array>
            <mxPoint as="offset" />
          </mxGeometry>
        </mxCell>
        <mxCell id="ytEvOS1A0uu5QeDHtLsP-39" value="1" style="edgeLabel;resizable=0;html=1;align=left;verticalAlign=bottom;" connectable="0" vertex="1" parent="ytEvOS1A0uu5QeDHtLsP-38">
          <mxGeometry x="-1" relative="1" as="geometry" />
        </mxCell>
        <mxCell id="ytEvOS1A0uu5QeDHtLsP-40" value="&lt;font style=&quot;font-size: 12px&quot;&gt;Show&lt;/font&gt;" style="endArrow=block;endFill=1;html=1;edgeStyle=orthogonalEdgeStyle;align=left;verticalAlign=top;entryX=0;entryY=0.5;entryDx=0;entryDy=0;exitX=1;exitY=0.25;exitDx=0;exitDy=0;" edge="1" parent="WIyWlLk6GJQsqaUBKTNV-1" source="UazscKnlA4gNwpAuMZIE-18" target="ytEvOS1A0uu5QeDHtLsP-37">
          <mxGeometry x="-0.5651" y="5" relative="1" as="geometry">
            <mxPoint x="266" y="1532" as="sourcePoint" />
            <mxPoint x="426" y="1532" as="targetPoint" />
            <mxPoint as="offset" />
          </mxGeometry>
        </mxCell>
        <mxCell id="ytEvOS1A0uu5QeDHtLsP-41" value="1" style="edgeLabel;resizable=0;html=1;align=left;verticalAlign=bottom;" connectable="0" vertex="1" parent="ytEvOS1A0uu5QeDHtLsP-40">
          <mxGeometry x="-1" relative="1" as="geometry" />
        </mxCell>
        <mxCell id="ytEvOS1A0uu5QeDHtLsP-44" value="" style="endArrow=none;html=1;" edge="1" parent="WIyWlLk6GJQsqaUBKTNV-1">
          <mxGeometry width="50" height="50" relative="1" as="geometry">
            <mxPoint x="480" y="584" as="sourcePoint" />
            <mxPoint x="480" y="639" as="targetPoint" />
          </mxGeometry>
        </mxCell>
      </root>
    </mxGraphModel>
  </diagram>
</mxfile>
